<svg width="36" height="30" viewBox="0 0 36 30" fill="none" xmlns="http://www.w3.org/2000/svg">
<path d="M3.82836 1.10936C5.67012 1.40638 6.64468 2.91004 7.88666 4.08021C9.04579 5.32127 10.1349 6.64319 11.3252 7.84436C18.7487 14.6292 25.5347 20.0383 33.4374 26.2626C33.5397 26.3425 34.6098 27.4019 34.2911 27.8098C33.9724 28.2178 32.6856 27.4357 32.5833 27.3557C27.3139 23.2103 23.3557 19.6488 17.8794 15.777C13.7478 12.856 9.66901 9.87625 5.09243 7.65666C3.65656 6.73467 1.96606 6.15615 1.22804 4.43763C0.516947 2.79011 2.07747 0.819096 3.82836 1.10936Z" fill="#001548"/>
<path d="M32.1716 28.6138C30.3299 28.3168 29.3553 26.8131 28.1133 25.6429C26.9542 24.4019 25.8651 23.08 24.6748 21.8788C17.2513 15.094 10.4653 9.68481 2.56263 3.46057C2.46029 3.38062 1.39016 2.32127 1.70888 1.91332C2.0276 1.50538 3.31437 2.28745 3.41671 2.3674C8.68607 6.51283 12.6443 10.0744 18.1206 13.9461C22.2522 16.8672 26.331 19.8469 30.9076 22.0665C32.3434 22.9885 34.0339 23.567 34.772 25.2855C35.4831 26.933 33.9225 28.904 32.1716 28.6138Z" fill="#001548"/>
<path d="M34.7716 4.43793C34.0378 6.15312 32.3431 6.73496 30.9072 7.65696C29.4226 8.48142 27.8765 9.21835 26.423 10.0827C18.0438 15.6443 11.1537 20.9201 3.20247 27.0823C3.10014 27.1623 1.81336 27.9443 1.49464 27.5364C1.17592 27.1284 2.24606 26.0691 2.34839 25.9891C7.64546 21.8792 12.0588 18.9001 17.1404 14.5231C20.9742 11.221 24.8521 7.98418 28.113 4.08051C29.3549 2.91034 30.3252 1.41001 32.1713 1.10966C33.9419 0.818264 35.4768 2.80926 34.7716 4.43793Z" fill="#001548"/>
<path d="M1.22743 25.2857C1.96119 23.5705 3.65595 22.9887 5.09183 22.0667C6.57643 21.2422 8.12256 20.5053 9.57601 19.6409C17.9552 14.0793 24.8454 8.80352 32.7965 2.64133C32.8989 2.56137 34.1857 1.7793 34.5044 2.18725C34.8231 2.59519 33.753 3.65454 33.6506 3.7345C28.3536 7.84447 23.9402 10.8235 18.8587 15.2005C15.0249 18.5027 11.1469 21.7395 7.88605 25.6431C6.64408 26.8133 5.67378 28.3136 3.82776 28.614C2.05715 28.9054 0.522208 26.9144 1.22743 25.2857Z" fill="#001548"/>
</svg>
