<svg width="39" height="32" viewBox="0 0 39 32" fill="none" xmlns="http://www.w3.org/2000/svg">
<g clip-path="url(#clip0_419_243)">
<path d="M1.0831 0.451249C2.59094 -0.379021 4.15371 0.160655 5.72146 0.305952C7.26924 0.549844 8.81203 0.89233 10.3598 1.08952C19.6116 1.80563 27.6183 1.88372 36.9 1.92005C37.0198 1.92005 38.3997 2.08238 38.3997 2.56005C38.3997 3.03771 37.0198 3.20005 36.9 3.20005C30.7138 3.17929 25.8127 2.83828 19.6315 3.13406C14.9682 3.35719 10.3099 3.50768 5.72146 4.49363C4.15371 4.63892 2.59594 5.1786 1.0831 4.34833C-0.369816 3.55438 -0.354837 1.23482 1.0831 0.451249Z" fill="#001548"/>
<path d="M1.0831 18.3719C2.59094 17.5416 4.15371 18.0813 5.72146 18.2266C7.26924 18.4705 8.81203 18.813 10.3598 19.0102C19.6116 19.7263 27.6183 19.8044 36.9 19.8407C37.0198 19.8407 38.3997 20.003 38.3997 20.4807C38.3997 20.9584 37.0198 21.1207 36.9 21.1207C30.7138 21.0999 25.8127 20.7589 19.6315 21.0547C14.9682 21.2778 10.3099 21.4283 5.72146 22.4143C4.15371 22.5596 2.59594 23.0993 1.0831 22.269C-0.369816 21.475 -0.354837 19.1555 1.0831 18.3719Z" fill="#001548"/>
<path d="M37.3163 9.41194C35.8085 8.58167 34.2457 9.12135 32.678 9.26665C31.1302 9.51054 29.5874 9.85302 28.0396 10.0502C18.7878 10.7663 10.7811 10.8444 1.49944 10.8807C1.37961 10.8807 -0.000243282 11.0431 -0.000243282 11.5207C-0.000243282 11.9984 1.37961 12.1607 1.49944 12.1607C7.68558 12.14 12.5867 11.799 18.7679 12.0948C23.4312 12.3179 28.0895 12.4684 32.678 13.4543C34.2457 13.5996 35.8035 14.1393 37.3163 13.309C38.7692 12.5151 38.7543 10.1955 37.3163 9.41194Z" fill="#001548"/>
<path d="M37.3163 27.3319C35.8085 26.5016 34.2457 27.0413 32.678 27.1866C31.1302 27.4305 29.5874 27.7729 28.0396 27.9701C18.7878 28.6862 10.7811 28.7643 1.49944 28.8007C1.37961 28.8007 -0.000243282 28.963 -0.000243282 29.4407C-0.000243282 29.9183 1.37961 30.0807 1.49944 30.0807C7.68558 30.0599 12.5867 29.7189 18.7679 30.0147C23.4312 30.2378 28.0895 30.3883 32.678 31.3742C34.2457 31.5195 35.8035 32.0592 37.3163 31.2289C38.7692 30.435 38.7543 28.1154 37.3163 27.3319Z" fill="#001548"/>
</g>
<defs>
<clipPath id="clip0_419_243">
<rect width="38.4" height="32" fill="white"/>
</clipPath>
</defs>
</svg>
